<mxfile host="Electron" modified="2023-11-29T21:57:10.897Z" agent="Mozilla/5.0 (Windows NT 10.0; Win64; x64) AppleWebKit/537.36 (KHTML, like Gecko) draw.io/22.1.2 Chrome/114.0.5735.289 Electron/25.9.4 Safari/537.36" etag="RsZju5K3ByIZA8JLKl1x" version="22.1.2" type="device">
  <diagram id="C5RBs43oDa-KdzZeNtuy" name="Page-1">
    <mxGraphModel dx="1036" dy="614" grid="1" gridSize="10" guides="1" tooltips="1" connect="1" arrows="1" fold="1" page="1" pageScale="1" pageWidth="827" pageHeight="1169" math="0" shadow="0">
      <root>
        <mxCell id="WIyWlLk6GJQsqaUBKTNV-0" />
        <mxCell id="WIyWlLk6GJQsqaUBKTNV-1" parent="WIyWlLk6GJQsqaUBKTNV-0" />
        <UserObject label="" tags="Фон" id="R9A7mDlzEDrGGW-_6-jg-0">
          <mxCell style="vsdxID=5;fillColor=#FFFFFF;gradientColor=none;shape=stencil(nZBLDoAgDERP0z3SIyjew0SURgSD+Lu9kMZoXLhwN9O+tukAlrNpJg1SzDH4QW/URgNYgZTkjA4UkwJUgGXng+6DX1zLfmoymdXo17xh5zmRJ6Q42BWCfc2oJfdAr+Yv+AP9Cb7OJ3H/2JG1HNGz/84klThPVCc=);strokeColor=#000000;strokeWidth=4;points=[];labelBackgroundColor=none;rounded=0;html=1;whiteSpace=wrap;fontSize=14;fontFamily=Arial;" parent="WIyWlLk6GJQsqaUBKTNV-1" vertex="1">
            <mxGeometry x="80" y="20" width="300" height="56" as="geometry" />
          </mxCell>
        </UserObject>
        <UserObject label="" tags="Фон" id="R9A7mDlzEDrGGW-_6-jg-2">
          <mxCell style="vsdxID=1;edgeStyle=none;startArrow=none;endArrow=none;startSize=5;endSize=5;strokeWidth=4;strokeColor=#000000;spacingTop=0;spacingBottom=0;spacingLeft=0;spacingRight=0;verticalAlign=middle;html=1;labelBackgroundColor=none;rounded=0;fontSize=14;fontFamily=Arial;" parent="WIyWlLk6GJQsqaUBKTNV-1" edge="1">
            <mxGeometry relative="1" as="geometry">
              <Array as="points" />
              <mxPoint x="1660" y="20" as="sourcePoint" />
              <mxPoint x="1660" y="1170" as="targetPoint" />
            </mxGeometry>
          </mxCell>
        </UserObject>
        <UserObject label="" tags="Фон" id="R9A7mDlzEDrGGW-_6-jg-3">
          <mxCell style="vsdxID=2;edgeStyle=none;startArrow=none;endArrow=none;startSize=5;endSize=5;strokeWidth=4;strokeColor=#000000;spacingTop=0;spacingBottom=0;spacingLeft=0;spacingRight=0;verticalAlign=middle;html=1;labelBackgroundColor=none;rounded=0;fontSize=14;fontFamily=Arial;" parent="WIyWlLk6GJQsqaUBKTNV-1" edge="1">
            <mxGeometry relative="1" as="geometry">
              <Array as="points" />
              <mxPoint x="1660" y="1168" as="sourcePoint" />
              <mxPoint x="80" y="1168" as="targetPoint" />
            </mxGeometry>
          </mxCell>
        </UserObject>
        <UserObject label="" tags="Фон" id="R9A7mDlzEDrGGW-_6-jg-4">
          <mxCell style="vsdxID=3;edgeStyle=none;startArrow=none;endArrow=none;startSize=5;endSize=5;strokeWidth=4;strokeColor=#000000;spacingTop=0;spacingBottom=0;spacingLeft=0;spacingRight=0;verticalAlign=middle;html=1;labelBackgroundColor=none;rounded=0;fontSize=14;fontFamily=Arial;" parent="WIyWlLk6GJQsqaUBKTNV-1" edge="1">
            <mxGeometry relative="1" as="geometry">
              <mxPoint as="offset" />
              <Array as="points" />
              <mxPoint x="80" y="20" as="sourcePoint" />
              <mxPoint x="1660" y="20" as="targetPoint" />
            </mxGeometry>
          </mxCell>
        </UserObject>
        <UserObject label="" tags="Фон" id="R9A7mDlzEDrGGW-_6-jg-5">
          <mxCell style="vsdxID=4;edgeStyle=none;startArrow=none;endArrow=none;startSize=5;endSize=5;strokeWidth=4;strokeColor=#000000;spacingTop=0;spacingBottom=0;spacingLeft=0;spacingRight=0;verticalAlign=middle;html=1;labelBackgroundColor=none;rounded=0;fontSize=14;fontFamily=Arial;" parent="WIyWlLk6GJQsqaUBKTNV-1" edge="1">
            <mxGeometry relative="1" as="geometry">
              <Array as="points" />
              <mxPoint x="80" y="20" as="sourcePoint" />
              <mxPoint x="80" y="1168" as="targetPoint" />
            </mxGeometry>
          </mxCell>
        </UserObject>
        <UserObject label="&lt;div style=&quot;font-size: 14px;&quot;&gt;&lt;p style=&quot;margin: 0px; vertical-align: middle; direction: ltr; font-size: 14px;&quot;&gt;&lt;span style=&quot;background-color: initial; border-color: var(--border-color); font-size: 14px;&quot;&gt;&lt;font style=&quot;font-size: 14px;&quot;&gt;«&lt;/font&gt;&lt;/span&gt;&lt;font style=&quot;font-size: 14px;&quot;&gt;&lt;i style=&quot;font-size: 14px;&quot;&gt;&lt;font style=&quot;font-size: 14px;&quot;&gt;Сістэма заказаў ў&lt;/font&gt;&lt;span style=&quot;font-size: 14px;&quot;&gt;&amp;nbsp;&lt;/span&gt;&lt;/i&gt;&lt;/font&gt;&lt;/p&gt;&lt;p style=&quot;margin: 0px; vertical-align: middle; direction: ltr; font-size: 14px;&quot;&gt;&lt;i style=&quot;font-size: 14px;&quot;&gt;&lt;font style=&quot;font-size: 14px;&quot;&gt;інтэрнэт-краме&lt;/font&gt;&lt;/i&gt;&lt;span style=&quot;background-color: initial; border-color: var(--border-color); font-size: 14px;&quot;&gt;&lt;span style=&quot;border-color: var(--border-color); line-height: 19.9733px; font-size: 14px;&quot; lang=&quot;BE&quot;&gt;&lt;font style=&quot;font-size: 14px;&quot;&gt;»&lt;/font&gt;&lt;/span&gt;&lt;/span&gt;&lt;i style=&quot;font-size: 14px; background-color: initial;&quot;&gt;.&lt;/i&gt;&lt;/p&gt;&lt;p style=&quot;margin: 0px; vertical-align: middle; direction: ltr; font-size: 14px;&quot;&gt;&lt;span style=&quot;font-size: 14px;&quot;&gt;&lt;i style=&quot;font-size: 14px;&quot;&gt;Схема метаду on_load ()&lt;/i&gt;&lt;/span&gt;&lt;/p&gt;&lt;/div&gt;" tags="Фон" id="R9A7mDlzEDrGGW-_6-jg-6">
          <mxCell style="verticalAlign=middle;align=center;overflow=width;vsdxID=381;fillColor=none;gradientColor=none;shape=stencil(nZBLDoAgDERP0z3SIyjew0SURgSD+Lu9kMZoXLhwN9O+tukAlrNpJg1SzDH4QW/URgNYgZTkjA4UkwJUgGXng+6DX1zLfmoymdXo17xh5zmRJ6Q42BWCfc2oJfdAr+Yv+AP9Cb7OJ3H/2JG1HNGz/84klThPVCc=);strokeColor=none;points=[];labelBackgroundColor=none;rounded=0;html=1;whiteSpace=wrap;fontSize=14;fontFamily=Arial;" parent="WIyWlLk6GJQsqaUBKTNV-1" vertex="1">
            <mxGeometry x="1180" y="1008" width="280" height="100" as="geometry" />
          </mxCell>
        </UserObject>
        <UserObject label="" tags="Фон" id="R9A7mDlzEDrGGW-_6-jg-7">
          <mxCell style="vsdxID=384;edgeStyle=none;startArrow=none;endArrow=none;startSize=3;endSize=3;strokeWidth=4;strokeColor=#000000;spacingTop=-2;spacingBottom=-2;spacingLeft=-2;spacingRight=-2;verticalAlign=middle;html=1;labelBackgroundColor=#FFFFFF;rounded=0;fontSize=14;fontFamily=Arial;" parent="WIyWlLk6GJQsqaUBKTNV-1" edge="1">
            <mxGeometry relative="1" as="geometry">
              <Array as="points" />
              <mxPoint x="1460" y="1027" as="sourcePoint" />
              <mxPoint x="1460" y="1167" as="targetPoint" />
            </mxGeometry>
          </mxCell>
        </UserObject>
        <UserObject label="" tags="Фон" id="R9A7mDlzEDrGGW-_6-jg-8">
          <mxCell style="vsdxID=385;edgeStyle=none;startArrow=none;endArrow=none;startSize=3;endSize=3;strokeWidth=4;strokeColor=#000000;spacingTop=-2;spacingBottom=-2;spacingLeft=-2;spacingRight=-2;verticalAlign=middle;html=1;labelBackgroundColor=#FFFFFF;rounded=0;fontSize=14;fontFamily=Arial;" parent="WIyWlLk6GJQsqaUBKTNV-1" edge="1">
            <mxGeometry relative="1" as="geometry">
              <Array as="points" />
              <mxPoint x="1460" y="1027" as="sourcePoint" />
              <mxPoint x="1660" y="1027" as="targetPoint" />
            </mxGeometry>
          </mxCell>
        </UserObject>
        <UserObject label="" tags="Фон" id="R9A7mDlzEDrGGW-_6-jg-9">
          <mxCell style="vsdxID=386;edgeStyle=none;startArrow=none;endArrow=none;startSize=3;endSize=3;strokeWidth=4;strokeColor=#000000;spacingTop=-2;spacingBottom=-2;spacingLeft=-2;spacingRight=-2;verticalAlign=middle;html=1;labelBackgroundColor=#FFFFFF;rounded=0;fontSize=14;fontFamily=Arial;" parent="WIyWlLk6GJQsqaUBKTNV-1" edge="1">
            <mxGeometry relative="1" as="geometry">
              <Array as="points" />
              <mxPoint x="1660" y="1107" as="sourcePoint" />
              <mxPoint x="1460" y="1107" as="targetPoint" />
            </mxGeometry>
          </mxCell>
        </UserObject>
        <UserObject label="" tags="Фон" id="R9A7mDlzEDrGGW-_6-jg-10">
          <mxCell style="vsdxID=387;edgeStyle=none;startArrow=none;endArrow=none;startSize=3;endSize=3;strokeWidth=4;strokeColor=#000000;spacingTop=-2;spacingBottom=-2;spacingLeft=-2;spacingRight=-2;verticalAlign=middle;html=1;labelBackgroundColor=#FFFFFF;rounded=0;fontSize=14;fontFamily=Arial;" parent="WIyWlLk6GJQsqaUBKTNV-1" edge="1">
            <mxGeometry relative="1" as="geometry">
              <Array as="points" />
              <mxPoint x="1540" y="1087" as="sourcePoint" />
              <mxPoint x="1540" y="1107" as="targetPoint" />
            </mxGeometry>
          </mxCell>
        </UserObject>
        <UserObject label="" tags="Фон" id="R9A7mDlzEDrGGW-_6-jg-11">
          <mxCell style="vsdxID=388;edgeStyle=none;startArrow=none;endArrow=none;startSize=3;endSize=3;strokeWidth=4;strokeColor=#000000;spacingTop=-2;spacingBottom=-2;spacingLeft=-2;spacingRight=-2;verticalAlign=middle;html=1;labelBackgroundColor=#FFFFFF;rounded=0;fontSize=14;fontFamily=Arial;" parent="WIyWlLk6GJQsqaUBKTNV-1" edge="1">
            <mxGeometry relative="1" as="geometry">
              <Array as="points" />
              <mxPoint x="1588" y="1007" as="sourcePoint" />
              <mxPoint x="1588" y="1067" as="targetPoint" />
            </mxGeometry>
          </mxCell>
        </UserObject>
        <UserObject label="" tags="Фон" id="R9A7mDlzEDrGGW-_6-jg-12">
          <mxCell style="vsdxID=389;edgeStyle=none;startArrow=none;endArrow=none;startSize=3;endSize=3;strokeWidth=4;strokeColor=#000000;spacingTop=-2;spacingBottom=-2;spacingLeft=-2;spacingRight=-2;verticalAlign=middle;html=1;labelBackgroundColor=#FFFFFF;rounded=0;fontSize=14;fontFamily=Arial;" parent="WIyWlLk6GJQsqaUBKTNV-1" edge="1">
            <mxGeometry relative="1" as="geometry">
              <Array as="points" />
              <mxPoint x="1460" y="1087" as="sourcePoint" />
              <mxPoint x="1660" y="1087" as="targetPoint" />
            </mxGeometry>
          </mxCell>
        </UserObject>
        <UserObject label="" tags="Фон" id="R9A7mDlzEDrGGW-_6-jg-13">
          <mxCell style="vsdxID=390;edgeStyle=none;startArrow=none;endArrow=none;startSize=3;endSize=3;strokeWidth=4;strokeColor=#000000;spacingTop=-2;spacingBottom=-2;spacingLeft=-2;spacingRight=-2;verticalAlign=middle;html=1;labelBackgroundColor=#FFFFFF;rounded=0;fontSize=14;fontFamily=Arial;" parent="WIyWlLk6GJQsqaUBKTNV-1" edge="1">
            <mxGeometry relative="1" as="geometry">
              <Array as="points" />
              <mxPoint x="1588" y="1067" as="sourcePoint" />
              <mxPoint x="1588" y="1087" as="targetPoint" />
            </mxGeometry>
          </mxCell>
        </UserObject>
        <UserObject label="" tags="Фон" id="R9A7mDlzEDrGGW-_6-jg-14">
          <mxCell style="vsdxID=391;edgeStyle=none;startArrow=none;endArrow=none;startSize=3;endSize=3;strokeWidth=4;strokeColor=#000000;spacingTop=-2;spacingBottom=-2;spacingLeft=-2;spacingRight=-2;verticalAlign=middle;html=1;labelBackgroundColor=#FFFFFF;rounded=0;fontSize=14;fontFamily=Arial;" parent="WIyWlLk6GJQsqaUBKTNV-1" edge="1">
            <mxGeometry relative="1" as="geometry">
              <Array as="points" />
              <mxPoint x="1460" y="1007" as="sourcePoint" />
              <mxPoint x="1460" y="1030" as="targetPoint" />
            </mxGeometry>
          </mxCell>
        </UserObject>
        <UserObject label="" tags="Фон" id="R9A7mDlzEDrGGW-_6-jg-15">
          <mxCell style="vsdxID=392;edgeStyle=none;startArrow=none;endArrow=none;startSize=3;endSize=3;strokeColor=#000000;spacingTop=-2;spacingBottom=-2;spacingLeft=-2;spacingRight=-2;verticalAlign=middle;html=1;labelBackgroundColor=#FFFFFF;rounded=0;fontSize=14;fontFamily=Arial;" parent="WIyWlLk6GJQsqaUBKTNV-1" edge="1">
            <mxGeometry relative="1" as="geometry">
              <Array as="points" />
              <mxPoint x="1480" y="1027" as="sourcePoint" />
              <mxPoint x="1480" y="1087" as="targetPoint" />
            </mxGeometry>
          </mxCell>
        </UserObject>
        <UserObject label="" tags="Фон" id="R9A7mDlzEDrGGW-_6-jg-16">
          <mxCell style="vsdxID=393;edgeStyle=none;startArrow=none;endArrow=none;startSize=3;endSize=3;strokeColor=#000000;spacingTop=-2;spacingBottom=-2;spacingLeft=-2;spacingRight=-2;verticalAlign=middle;html=1;labelBackgroundColor=#FFFFFF;rounded=0;fontSize=14;fontFamily=Arial;" parent="WIyWlLk6GJQsqaUBKTNV-1" edge="1">
            <mxGeometry relative="1" as="geometry">
              <Array as="points" />
              <mxPoint x="1500" y="1027" as="sourcePoint" />
              <mxPoint x="1500" y="1087" as="targetPoint" />
            </mxGeometry>
          </mxCell>
        </UserObject>
        <UserObject label="" tags="Фон" id="R9A7mDlzEDrGGW-_6-jg-17">
          <mxCell style="vsdxID=394;edgeStyle=none;startArrow=none;endArrow=none;startSize=3;endSize=3;strokeWidth=4;strokeColor=#000000;spacingTop=-2;spacingBottom=-2;spacingLeft=-2;spacingRight=-2;verticalAlign=middle;html=1;labelBackgroundColor=#FFFFFF;rounded=0;fontSize=14;fontFamily=Arial;" parent="WIyWlLk6GJQsqaUBKTNV-1" edge="1">
            <mxGeometry relative="1" as="geometry">
              <Array as="points" />
              <mxPoint x="1520" y="1007" as="sourcePoint" />
              <mxPoint x="1520" y="1087" as="targetPoint" />
            </mxGeometry>
          </mxCell>
        </UserObject>
        <UserObject label="" tags="Фон" id="R9A7mDlzEDrGGW-_6-jg-18">
          <mxCell style="vsdxID=395;edgeStyle=none;startArrow=none;endArrow=none;startSize=3;endSize=3;strokeWidth=4;strokeColor=#000000;spacingTop=-2;spacingBottom=-2;spacingLeft=-2;spacingRight=-2;verticalAlign=middle;html=1;labelBackgroundColor=#FFFFFF;rounded=0;fontSize=14;fontFamily=Arial;" parent="WIyWlLk6GJQsqaUBKTNV-1" edge="1">
            <mxGeometry relative="1" as="geometry">
              <Array as="points" />
              <mxPoint x="1460" y="1107" as="sourcePoint" />
              <mxPoint x="1180" y="1107" as="targetPoint" />
            </mxGeometry>
          </mxCell>
        </UserObject>
        <UserObject label="" tags="Фон" id="R9A7mDlzEDrGGW-_6-jg-19">
          <mxCell style="vsdxID=396;edgeStyle=none;startArrow=none;endArrow=none;startSize=3;endSize=3;strokeWidth=4;strokeColor=#000000;spacingTop=-2;spacingBottom=-2;spacingLeft=-2;spacingRight=-2;verticalAlign=middle;html=1;labelBackgroundColor=#FFFFFF;rounded=0;fontSize=14;fontFamily=Arial;" parent="WIyWlLk6GJQsqaUBKTNV-1" edge="1">
            <mxGeometry relative="1" as="geometry">
              <Array as="points" />
              <mxPoint x="1180" y="947" as="sourcePoint" />
              <mxPoint x="1180" y="1167" as="targetPoint" />
            </mxGeometry>
          </mxCell>
        </UserObject>
        <UserObject label="" tags="Фон" id="R9A7mDlzEDrGGW-_6-jg-20">
          <mxCell style="vsdxID=397;edgeStyle=none;startArrow=none;endArrow=none;startSize=3;endSize=3;strokeWidth=4;strokeColor=#000000;spacingTop=-2;spacingBottom=-2;spacingLeft=-2;spacingRight=-2;verticalAlign=middle;html=1;labelBackgroundColor=#FFFFFF;rounded=0;fontSize=14;fontFamily=Arial;" parent="WIyWlLk6GJQsqaUBKTNV-1" edge="1">
            <mxGeometry relative="1" as="geometry">
              <Array as="points" />
              <mxPoint x="1180" y="1027" as="sourcePoint" />
              <mxPoint x="918" y="1027" as="targetPoint" />
            </mxGeometry>
          </mxCell>
        </UserObject>
        <UserObject label="" tags="Фон" id="R9A7mDlzEDrGGW-_6-jg-21">
          <mxCell style="vsdxID=398;edgeStyle=none;startArrow=none;endArrow=none;startSize=3;endSize=3;strokeWidth=4;strokeColor=#000000;spacingTop=-2;spacingBottom=-2;spacingLeft=-2;spacingRight=-2;verticalAlign=middle;html=1;labelBackgroundColor=#FFFFFF;rounded=0;fontSize=14;fontFamily=Arial;" parent="WIyWlLk6GJQsqaUBKTNV-1" edge="1">
            <mxGeometry relative="1" as="geometry">
              <Array as="points" />
              <mxPoint x="1180" y="1007" as="sourcePoint" />
              <mxPoint x="1660" y="1007" as="targetPoint" />
            </mxGeometry>
          </mxCell>
        </UserObject>
        <UserObject label="" tags="Фон" id="R9A7mDlzEDrGGW-_6-jg-22">
          <mxCell style="vsdxID=399;edgeStyle=none;startArrow=none;endArrow=none;startSize=3;endSize=3;strokeWidth=4;strokeColor=#000000;spacingTop=-2;spacingBottom=-2;spacingLeft=-2;spacingRight=-2;verticalAlign=middle;html=1;labelBackgroundColor=#FFFFFF;rounded=0;fontSize=14;fontFamily=Arial;" parent="WIyWlLk6GJQsqaUBKTNV-1" edge="1">
            <mxGeometry relative="1" as="geometry">
              <Array as="points" />
              <mxPoint x="1140" y="947" as="sourcePoint" />
              <mxPoint x="1140" y="1167" as="targetPoint" />
            </mxGeometry>
          </mxCell>
        </UserObject>
        <UserObject label="" tags="Фон" id="R9A7mDlzEDrGGW-_6-jg-23">
          <mxCell style="vsdxID=400;edgeStyle=none;startArrow=none;endArrow=none;startSize=3;endSize=3;strokeWidth=4;strokeColor=#000000;spacingTop=-2;spacingBottom=-2;spacingLeft=-2;spacingRight=-2;verticalAlign=middle;html=1;labelBackgroundColor=#FFFFFF;rounded=0;fontSize=14;fontFamily=Arial;" parent="WIyWlLk6GJQsqaUBKTNV-1" edge="1">
            <mxGeometry relative="1" as="geometry">
              <Array as="points" />
              <mxPoint x="1080" y="947" as="sourcePoint" />
              <mxPoint x="1080" y="1167" as="targetPoint" />
            </mxGeometry>
          </mxCell>
        </UserObject>
        <UserObject label="" tags="Фон" id="R9A7mDlzEDrGGW-_6-jg-24">
          <mxCell style="vsdxID=401;edgeStyle=none;startArrow=none;endArrow=none;startSize=3;endSize=3;strokeWidth=4;strokeColor=#000000;spacingTop=-2;spacingBottom=-2;spacingLeft=-2;spacingRight=-2;verticalAlign=middle;html=1;labelBackgroundColor=#FFFFFF;rounded=0;fontSize=14;fontFamily=Arial;" parent="WIyWlLk6GJQsqaUBKTNV-1" edge="1">
            <mxGeometry relative="1" as="geometry">
              <Array as="points" />
              <mxPoint x="988" y="947" as="sourcePoint" />
              <mxPoint x="988" y="1167" as="targetPoint" />
            </mxGeometry>
          </mxCell>
        </UserObject>
        <UserObject label="" tags="Фон" id="R9A7mDlzEDrGGW-_6-jg-25">
          <mxCell style="vsdxID=402;edgeStyle=none;startArrow=none;endArrow=none;startSize=3;endSize=3;strokeColor=#000000;spacingTop=-2;spacingBottom=-2;spacingLeft=-2;spacingRight=-2;verticalAlign=middle;html=1;labelBackgroundColor=#FFFFFF;rounded=0;fontSize=14;fontFamily=Arial;" parent="WIyWlLk6GJQsqaUBKTNV-1" edge="1">
            <mxGeometry relative="1" as="geometry">
              <Array as="points" />
              <mxPoint x="918" y="967" as="sourcePoint" />
              <mxPoint x="1180" y="967" as="targetPoint" />
            </mxGeometry>
          </mxCell>
        </UserObject>
        <UserObject label="" tags="Фон" id="R9A7mDlzEDrGGW-_6-jg-26">
          <mxCell style="vsdxID=403;edgeStyle=none;startArrow=none;endArrow=none;startSize=3;endSize=3;strokeColor=#000000;spacingTop=-2;spacingBottom=-2;spacingLeft=-2;spacingRight=-2;verticalAlign=middle;html=1;labelBackgroundColor=#FFFFFF;rounded=0;fontSize=14;fontFamily=Arial;" parent="WIyWlLk6GJQsqaUBKTNV-1" edge="1">
            <mxGeometry relative="1" as="geometry">
              <Array as="points" />
              <mxPoint x="1180" y="987" as="sourcePoint" />
              <mxPoint x="918" y="987" as="targetPoint" />
            </mxGeometry>
          </mxCell>
        </UserObject>
        <UserObject label="" tags="Фон" id="R9A7mDlzEDrGGW-_6-jg-27">
          <mxCell style="vsdxID=404;edgeStyle=none;startArrow=none;endArrow=none;startSize=3;endSize=3;strokeColor=#000000;spacingTop=-2;spacingBottom=-2;spacingLeft=-2;spacingRight=-2;verticalAlign=middle;html=1;labelBackgroundColor=#FFFFFF;rounded=0;fontSize=14;fontFamily=Arial;" parent="WIyWlLk6GJQsqaUBKTNV-1" edge="1">
            <mxGeometry relative="1" as="geometry">
              <Array as="points" />
              <mxPoint x="918" y="1007" as="sourcePoint" />
              <mxPoint x="1180" y="1007" as="targetPoint" />
            </mxGeometry>
          </mxCell>
        </UserObject>
        <UserObject label="" tags="Фон" id="R9A7mDlzEDrGGW-_6-jg-28">
          <mxCell style="vsdxID=405;edgeStyle=none;startArrow=none;endArrow=none;startSize=3;endSize=3;strokeColor=#000000;spacingTop=-2;spacingBottom=-2;spacingLeft=-2;spacingRight=-2;verticalAlign=middle;html=1;labelBackgroundColor=#FFFFFF;rounded=0;fontSize=14;fontFamily=Arial;" parent="WIyWlLk6GJQsqaUBKTNV-1" edge="1">
            <mxGeometry relative="1" as="geometry">
              <Array as="points" />
              <mxPoint x="1180" y="1067" as="sourcePoint" />
              <mxPoint x="918" y="1067" as="targetPoint" />
            </mxGeometry>
          </mxCell>
        </UserObject>
        <UserObject label="" tags="Фон" id="R9A7mDlzEDrGGW-_6-jg-29">
          <mxCell style="vsdxID=406;edgeStyle=none;startArrow=none;endArrow=none;startSize=3;endSize=3;strokeColor=#000000;spacingTop=-2;spacingBottom=-2;spacingLeft=-2;spacingRight=-2;verticalAlign=middle;html=1;labelBackgroundColor=#FFFFFF;rounded=0;fontSize=14;fontFamily=Arial;" parent="WIyWlLk6GJQsqaUBKTNV-1" edge="1">
            <mxGeometry relative="1" as="geometry">
              <Array as="points" />
              <mxPoint x="918" y="1087" as="sourcePoint" />
              <mxPoint x="1180" y="1087" as="targetPoint" />
            </mxGeometry>
          </mxCell>
        </UserObject>
        <UserObject label="" tags="Фон" id="R9A7mDlzEDrGGW-_6-jg-30">
          <mxCell style="vsdxID=407;edgeStyle=none;startArrow=none;endArrow=none;startSize=3;endSize=3;strokeColor=#000000;spacingTop=-2;spacingBottom=-2;spacingLeft=-2;spacingRight=-2;verticalAlign=middle;html=1;labelBackgroundColor=#FFFFFF;rounded=0;fontSize=14;fontFamily=Arial;" parent="WIyWlLk6GJQsqaUBKTNV-1" edge="1">
            <mxGeometry relative="1" as="geometry">
              <Array as="points" />
              <mxPoint x="1180" y="1107" as="sourcePoint" />
              <mxPoint x="918" y="1107" as="targetPoint" />
            </mxGeometry>
          </mxCell>
        </UserObject>
        <UserObject label="" tags="Фон" id="R9A7mDlzEDrGGW-_6-jg-31">
          <mxCell style="vsdxID=408;edgeStyle=none;startArrow=none;endArrow=none;startSize=3;endSize=3;strokeColor=#000000;spacingTop=-2;spacingBottom=-2;spacingLeft=-2;spacingRight=-2;verticalAlign=middle;html=1;labelBackgroundColor=#FFFFFF;rounded=0;fontSize=14;fontFamily=Arial;" parent="WIyWlLk6GJQsqaUBKTNV-1" edge="1">
            <mxGeometry relative="1" as="geometry">
              <Array as="points" />
              <mxPoint x="918" y="1127" as="sourcePoint" />
              <mxPoint x="1180" y="1127" as="targetPoint" />
            </mxGeometry>
          </mxCell>
        </UserObject>
        <UserObject label="" tags="Фон" id="R9A7mDlzEDrGGW-_6-jg-32">
          <mxCell style="vsdxID=409;edgeStyle=none;startArrow=none;endArrow=none;startSize=3;endSize=3;strokeColor=#000000;spacingTop=-2;spacingBottom=-2;spacingLeft=-2;spacingRight=-2;verticalAlign=middle;html=1;labelBackgroundColor=#FFFFFF;rounded=0;fontSize=14;fontFamily=Arial;" parent="WIyWlLk6GJQsqaUBKTNV-1" edge="1">
            <mxGeometry relative="1" as="geometry">
              <Array as="points" />
              <mxPoint x="1180" y="1147" as="sourcePoint" />
              <mxPoint x="918" y="1147" as="targetPoint" />
            </mxGeometry>
          </mxCell>
        </UserObject>
        <UserObject label="" tags="Фон" id="R9A7mDlzEDrGGW-_6-jg-33">
          <mxCell style="vsdxID=410;edgeStyle=none;startArrow=none;endArrow=none;startSize=3;endSize=3;strokeWidth=4;strokeColor=#000000;spacingTop=-2;spacingBottom=-2;spacingLeft=-2;spacingRight=-2;verticalAlign=middle;html=1;labelBackgroundColor=#FFFFFF;rounded=0;fontSize=14;fontFamily=Arial;" parent="WIyWlLk6GJQsqaUBKTNV-1" edge="1">
            <mxGeometry relative="1" as="geometry">
              <Array as="points" />
              <mxPoint x="918" y="1047" as="sourcePoint" />
              <mxPoint x="1180" y="1047" as="targetPoint" />
            </mxGeometry>
          </mxCell>
        </UserObject>
        <UserObject label="" tags="Фон" id="R9A7mDlzEDrGGW-_6-jg-34">
          <mxCell style="vsdxID=411;edgeStyle=none;startArrow=none;endArrow=none;startSize=3;endSize=3;strokeWidth=4;strokeColor=#000000;spacingTop=-2;spacingBottom=-2;spacingLeft=-2;spacingRight=-2;verticalAlign=middle;html=1;labelBackgroundColor=#FFFFFF;rounded=0;fontSize=14;fontFamily=Arial;" parent="WIyWlLk6GJQsqaUBKTNV-1" edge="1">
            <mxGeometry relative="1" as="geometry">
              <Array as="points" />
              <mxPoint x="944" y="949" as="sourcePoint" />
              <mxPoint x="944" y="1047" as="targetPoint" />
            </mxGeometry>
          </mxCell>
        </UserObject>
        <UserObject label="&lt;div style=&quot;font-size: 14px;&quot;&gt;&lt;font style=&quot;color: rgb(0, 0, 0); direction: ltr; letter-spacing: 0px; line-height: 120%; opacity: 1; font-size: 14px;&quot;&gt;&lt;i style=&quot;font-size: 14px;&quot;&gt;&lt;font style=&quot;font-size: 14px;&quot;&gt;Зм.&lt;/font&gt;&lt;br style=&quot;font-size: 14px;&quot;&gt;&lt;/i&gt;&lt;/font&gt;&lt;/div&gt;" tags="Фон" id="R9A7mDlzEDrGGW-_6-jg-35">
          <mxCell style="verticalAlign=middle;align=center;overflow=width;vsdxID=412;fillColor=none;gradientColor=none;shape=stencil(nZBLDoAgDERP0z3SIyjew0SURgSD+Lu9kMZoXLhwN9O+tukAlrNpJg1SzDH4QW/URgNYgZTkjA4UkwJUgGXng+6DX1zLfmoymdXo17xh5zmRJ6Q42BWCfc2oJfdAr+Yv+AP9Cb7OJ3H/2JG1HNGz/84klThPVCc=);strokeColor=none;strokeWidth=3;spacingTop=-2;spacingBottom=-2;spacingLeft=-2;spacingRight=-2;points=[];labelBackgroundColor=none;rounded=0;html=1;whiteSpace=wrap;fontSize=14;fontFamily=Arial;" parent="WIyWlLk6GJQsqaUBKTNV-1" vertex="1">
            <mxGeometry x="917" y="1027" width="28" height="23" as="geometry" />
          </mxCell>
        </UserObject>
        <UserObject label="&lt;div style=&quot;font-size: 14px;&quot;&gt;&lt;font style=&quot;color: rgb(0, 0, 0); direction: ltr; letter-spacing: 0px; line-height: 120%; opacity: 1; font-size: 14px;&quot;&gt;&lt;i style=&quot;font-size: 14px;&quot;&gt;&lt;font style=&quot;font-size: 14px;&quot;&gt;Ліст&lt;/font&gt;&lt;br style=&quot;font-size: 14px;&quot;&gt;&lt;/i&gt;&lt;/font&gt;&lt;/div&gt;" tags="Фон" id="R9A7mDlzEDrGGW-_6-jg-36">
          <mxCell style="verticalAlign=middle;align=center;overflow=width;vsdxID=413;fillColor=none;gradientColor=none;shape=stencil(nZBLDoAgDERP0z3SIyjew0SURgSD+Lu9kMZoXLhwN9O+tukAlrNpJg1SzDH4QW/URgNYgZTkjA4UkwJUgGXng+6DX1zLfmoymdXo17xh5zmRJ6Q42BWCfc2oJfdAr+Yv+AP9Cb7OJ3H/2JG1HNGz/84klThPVCc=);strokeColor=none;strokeWidth=3;spacingTop=-2;spacingBottom=-2;spacingLeft=-2;spacingRight=-2;points=[];labelBackgroundColor=none;rounded=0;html=1;whiteSpace=wrap;fontSize=14;fontFamily=Arial;" parent="WIyWlLk6GJQsqaUBKTNV-1" vertex="1">
            <mxGeometry x="920" y="1027" width="96" height="23" as="geometry" />
          </mxCell>
        </UserObject>
        <UserObject label="&lt;div style=&quot;font-size: 14px;&quot;&gt;&lt;font style=&quot;font-size: 14px; color: rgb(0, 0, 0); direction: ltr; letter-spacing: 0px; line-height: 120%; opacity: 1;&quot;&gt;&lt;i style=&quot;font-size: 14px;&quot;&gt;№ дакум.&lt;br style=&quot;font-size: 14px;&quot;&gt;&lt;/i&gt;&lt;/font&gt;&lt;/div&gt;" tags="Фон" id="R9A7mDlzEDrGGW-_6-jg-37">
          <mxCell style="verticalAlign=middle;align=center;overflow=width;vsdxID=414;fillColor=none;gradientColor=none;shape=stencil(nZBLDoAgDERP0z3SIyjew0SURgSD+Lu9kMZoXLhwN9O+tukAlrNpJg1SzDH4QW/URgNYgZTkjA4UkwJUgGXng+6DX1zLfmoymdXo17xh5zmRJ6Q42BWCfc2oJfdAr+Yv+AP9Cb7OJ3H/2JG1HNGz/84klThPVCc=);strokeColor=none;strokeWidth=3;spacingTop=-2;spacingBottom=-2;spacingLeft=-2;spacingRight=-2;points=[];labelBackgroundColor=none;rounded=0;html=1;whiteSpace=wrap;fontSize=14;fontFamily=Arial;" parent="WIyWlLk6GJQsqaUBKTNV-1" vertex="1">
            <mxGeometry x="980" y="1027" width="104" height="23" as="geometry" />
          </mxCell>
        </UserObject>
        <UserObject label="&lt;div style=&quot;font-size: 14px;&quot;&gt;&lt;font style=&quot;font-size: 14px; color: rgb(0, 0, 0); direction: ltr; letter-spacing: 0px; line-height: 120%; opacity: 1;&quot;&gt;&lt;i style=&quot;font-size: 14px;&quot;&gt;Подп.&lt;br style=&quot;font-size: 14px;&quot;&gt;&lt;/i&gt;&lt;/font&gt;&lt;/div&gt;" tags="Фон" id="R9A7mDlzEDrGGW-_6-jg-38">
          <mxCell style="verticalAlign=middle;align=center;overflow=width;vsdxID=415;fillColor=none;gradientColor=none;shape=stencil(nZBLDoAgDERP0z3SIyjew0SURgSD+Lu9kMZoXLhwN9O+tukAlrNpJg1SzDH4QW/URgNYgZTkjA4UkwJUgGXng+6DX1zLfmoymdXo17xh5zmRJ6Q42BWCfc2oJfdAr+Yv+AP9Cb7OJ3H/2JG1HNGz/84klThPVCc=);strokeColor=none;strokeWidth=3;spacingTop=-2;spacingBottom=-2;spacingLeft=-2;spacingRight=-2;points=[];labelBackgroundColor=none;rounded=0;html=1;whiteSpace=wrap;fontSize=14;fontFamily=Arial;" parent="WIyWlLk6GJQsqaUBKTNV-1" vertex="1">
            <mxGeometry x="1055" y="1027" width="104" height="23" as="geometry" />
          </mxCell>
        </UserObject>
        <UserObject label="&lt;div style=&quot;font-size: 14px;&quot;&gt;&lt;font style=&quot;font-size: 14px; color: rgb(0, 0, 0); direction: ltr; letter-spacing: 0px; line-height: 120%; opacity: 1;&quot;&gt;&lt;i style=&quot;font-size: 14px;&quot;&gt;Дата&lt;br style=&quot;font-size: 14px;&quot;&gt;&lt;/i&gt;&lt;/font&gt;&lt;/div&gt;" tags="Фон" id="R9A7mDlzEDrGGW-_6-jg-39">
          <mxCell style="verticalAlign=middle;align=center;overflow=width;vsdxID=416;fillColor=none;gradientColor=none;shape=stencil(nZBLDoAgDERP0z3SIyjew0SURgSD+Lu9kMZoXLhwN9O+tukAlrNpJg1SzDH4QW/URgNYgZTkjA4UkwJUgGXng+6DX1zLfmoymdXo17xh5zmRJ6Q42BWCfc2oJfdAr+Yv+AP9Cb7OJ3H/2JG1HNGz/84klThPVCc=);strokeColor=none;strokeWidth=3;spacingTop=-2;spacingBottom=-2;spacingLeft=-2;spacingRight=-2;points=[];labelBackgroundColor=none;rounded=0;html=1;whiteSpace=wrap;fontSize=14;fontFamily=Arial;" parent="WIyWlLk6GJQsqaUBKTNV-1" vertex="1">
            <mxGeometry x="1140" y="1027" width="40" height="18" as="geometry" />
          </mxCell>
        </UserObject>
        <UserObject label="&lt;div style=&quot;font-size: 14px;&quot;&gt;&lt;font style=&quot;font-size: 14px; color: rgb(0, 0, 0); direction: ltr; letter-spacing: 0px; line-height: 120%; opacity: 1;&quot;&gt;&lt;i style=&quot;font-size: 14px;&quot;&gt;Разраб.&lt;br style=&quot;font-size: 14px;&quot;&gt;&lt;/i&gt;&lt;/font&gt;&lt;/div&gt;" tags="Фон" id="R9A7mDlzEDrGGW-_6-jg-40">
          <mxCell style="verticalAlign=middle;align=center;overflow=width;vsdxID=417;fillColor=none;gradientColor=none;shape=stencil(nZBLDoAgDERP0z3SIyjew0SURgSD+Lu9kMZoXLhwN9O+tukAlrNpJg1SzDH4QW/URgNYgZTkjA4UkwJUgGXng+6DX1zLfmoymdXo17xh5zmRJ6Q42BWCfc2oJfdAr+Yv+AP9Cb7OJ3H/2JG1HNGz/84klThPVCc=);strokeColor=none;strokeWidth=3;spacingTop=-2;spacingBottom=-2;spacingLeft=-2;spacingRight=-2;points=[];labelBackgroundColor=none;rounded=0;html=1;whiteSpace=wrap;fontSize=14;fontFamily=Arial;" parent="WIyWlLk6GJQsqaUBKTNV-1" vertex="1">
            <mxGeometry x="904" y="1050" width="104" height="20" as="geometry" />
          </mxCell>
        </UserObject>
        <UserObject label="&lt;div style=&quot;font-size: 14px;&quot;&gt;&lt;font style=&quot;font-size: 14px; color: rgb(0, 0, 0); direction: ltr; letter-spacing: 0px; line-height: 120%; opacity: 1;&quot;&gt;&lt;i style=&quot;font-size: 14px;&quot;&gt;Прав.&lt;br style=&quot;font-size: 14px;&quot;&gt;&lt;/i&gt;&lt;/font&gt;&lt;/div&gt;" tags="Фон" id="R9A7mDlzEDrGGW-_6-jg-41">
          <mxCell style="verticalAlign=middle;align=center;overflow=width;vsdxID=418;fillColor=none;gradientColor=none;shape=stencil(nZBLDoAgDERP0z3SIyjew0SURgSD+Lu9kMZoXLhwN9O+tukAlrNpJg1SzDH4QW/URgNYgZTkjA4UkwJUgGXng+6DX1zLfmoymdXo17xh5zmRJ6Q42BWCfc2oJfdAr+Yv+AP9Cb7OJ3H/2JG1HNGz/84klThPVCc=);strokeColor=none;strokeWidth=3;spacingTop=-2;spacingBottom=-2;spacingLeft=-2;spacingRight=-2;points=[];labelBackgroundColor=none;rounded=0;html=1;whiteSpace=wrap;fontSize=14;fontFamily=Arial;" parent="WIyWlLk6GJQsqaUBKTNV-1" vertex="1">
            <mxGeometry x="904" y="1066" width="104" height="23" as="geometry" />
          </mxCell>
        </UserObject>
        <UserObject label="&lt;div style=&quot;font-size: 14px;&quot;&gt;&lt;p style=&quot;text-align: left; margin: 0px; text-indent: 0px; vertical-align: middle; direction: ltr; font-size: 14px;&quot;&gt;&lt;font style=&quot;font-size: 14px;&quot;&gt;&lt;span style=&quot;font-size: 14px;&quot;&gt;&lt;i style=&quot;font-size: 14px;&quot;&gt;Капейкіна&lt;/i&gt;&lt;/span&gt;&lt;/font&gt;&lt;/p&gt;&lt;/div&gt;" tags="Фон" id="R9A7mDlzEDrGGW-_6-jg-42">
          <mxCell style="verticalAlign=middle;align=left;overflow=width;vsdxID=422;fillColor=none;gradientColor=none;shape=stencil(nZBLDoAgDERP0z3SIyjew0SURgSD+Lu9kMZoXLhwN9O+tukAlrNpJg1SzDH4QW/URgNYgZTkjA4UkwJUgGXng+6DX1zLfmoymdXo17xh5zmRJ6Q42BWCfc2oJfdAr+Yv+AP9Cb7OJ3H/2JG1HNGz/84klThPVCc=);strokeColor=none;strokeWidth=3;spacingTop=-2;spacingBottom=-2;spacingLeft=-2;spacingRight=-2;points=[];labelBackgroundColor=none;rounded=0;html=1;whiteSpace=wrap;fontSize=14;fontFamily=Arial;" parent="WIyWlLk6GJQsqaUBKTNV-1" vertex="1">
            <mxGeometry x="995" y="1050" width="104" height="20" as="geometry" />
          </mxCell>
        </UserObject>
        <UserObject label="&lt;div style=&quot;font-size: 14px;&quot;&gt;&lt;font style=&quot;font-size: 14px; color: rgb(0, 0, 0); direction: ltr; letter-spacing: 0px; line-height: 120%; opacity: 1;&quot;&gt;&lt;i style=&quot;font-size: 14px;&quot;&gt;Літ.&lt;br style=&quot;font-size: 14px;&quot;&gt;&lt;/i&gt;&lt;/font&gt;&lt;/div&gt;" tags="Фон" id="R9A7mDlzEDrGGW-_6-jg-43">
          <mxCell style="verticalAlign=middle;align=center;overflow=width;vsdxID=423;fillColor=none;gradientColor=none;shape=stencil(nZBLDoAgDERP0z3SIyjew0SURgSD+Lu9kMZoXLhwN9O+tukAlrNpJg1SzDH4QW/URgNYgZTkjA4UkwJUgGXng+6DX1zLfmoymdXo17xh5zmRJ6Q42BWCfc2oJfdAr+Yv+AP9Cb7OJ3H/2JG1HNGz/84klThPVCc=);strokeColor=none;strokeWidth=3;spacingTop=-2;spacingBottom=-2;spacingLeft=-2;spacingRight=-2;points=[];labelBackgroundColor=none;rounded=0;html=1;whiteSpace=wrap;fontSize=14;fontFamily=Arial;" parent="WIyWlLk6GJQsqaUBKTNV-1" vertex="1">
            <mxGeometry x="1437" y="1007" width="104" height="23" as="geometry" />
          </mxCell>
        </UserObject>
        <UserObject label="&lt;div style=&quot;font-size: 14px;&quot;&gt;&lt;font style=&quot;font-size: 14px; color: rgb(0, 0, 0); direction: ltr; letter-spacing: 0px; line-height: 120%; opacity: 1;&quot;&gt;&lt;i style=&quot;font-size: 14px;&quot;&gt;Маса&lt;br style=&quot;font-size: 14px;&quot;&gt;&lt;/i&gt;&lt;/font&gt;&lt;/div&gt;" tags="Фон" id="R9A7mDlzEDrGGW-_6-jg-44">
          <mxCell style="verticalAlign=middle;align=center;overflow=width;vsdxID=424;fillColor=none;gradientColor=none;shape=stencil(nZBLDoAgDERP0z3SIyjew0SURgSD+Lu9kMZoXLhwN9O+tukAlrNpJg1SzDH4QW/URgNYgZTkjA4UkwJUgGXng+6DX1zLfmoymdXo17xh5zmRJ6Q42BWCfc2oJfdAr+Yv+AP9Cb7OJ3H/2JG1HNGz/84klThPVCc=);strokeColor=none;strokeWidth=3;spacingTop=-2;spacingBottom=-2;spacingLeft=-2;spacingRight=-2;points=[];labelBackgroundColor=none;rounded=0;html=1;whiteSpace=wrap;fontSize=14;fontFamily=Arial;" parent="WIyWlLk6GJQsqaUBKTNV-1" vertex="1">
            <mxGeometry x="1500" y="1007" width="104" height="13" as="geometry" />
          </mxCell>
        </UserObject>
        <UserObject label="&lt;div style=&quot;font-size: 14px;&quot;&gt;&lt;font style=&quot;font-size: 14px; color: rgb(0, 0, 0); direction: ltr; letter-spacing: 0px; line-height: 120%; opacity: 1;&quot;&gt;&lt;i style=&quot;font-size: 14px;&quot;&gt;Маштаб&lt;br style=&quot;font-size: 14px;&quot;&gt;&lt;/i&gt;&lt;/font&gt;&lt;/div&gt;" tags="Фон" id="R9A7mDlzEDrGGW-_6-jg-45">
          <mxCell style="verticalAlign=middle;align=center;overflow=width;vsdxID=425;fillColor=none;gradientColor=none;shape=stencil(nZBLDoAgDERP0z3SIyjew0SURgSD+Lu9kMZoXLhwN9O+tukAlrNpJg1SzDH4QW/URgNYgZTkjA4UkwJUgGXng+6DX1zLfmoymdXo17xh5zmRJ6Q42BWCfc2oJfdAr+Yv+AP9Cb7OJ3H/2JG1HNGz/84klThPVCc=);strokeColor=none;strokeWidth=3;spacingTop=-2;spacingBottom=-2;spacingLeft=-2;spacingRight=-2;points=[];labelBackgroundColor=none;rounded=0;html=1;whiteSpace=wrap;fontSize=14;fontFamily=Arial;" parent="WIyWlLk6GJQsqaUBKTNV-1" vertex="1">
            <mxGeometry x="1572" y="1007" width="104" height="21" as="geometry" />
          </mxCell>
        </UserObject>
        <UserObject label="&lt;div style=&quot;font-size: 14px;&quot;&gt;&lt;font style=&quot;font-size: 14px; color: rgb(0, 0, 0); direction: ltr; letter-spacing: 0px; line-height: 120%; opacity: 1;&quot;&gt;&lt;i style=&quot;font-size: 14px;&quot;&gt;Ліст&lt;br style=&quot;font-size: 14px;&quot;&gt;&lt;/i&gt;&lt;/font&gt;&lt;/div&gt;" tags="Фон" id="R9A7mDlzEDrGGW-_6-jg-46">
          <mxCell style="verticalAlign=middle;align=center;overflow=width;vsdxID=426;fillColor=none;gradientColor=none;shape=stencil(nZBLDoAgDERP0z3SIyjew0SURgSD+Lu9kMZoXLhwN9O+tukAlrNpJg1SzDH4QW/URgNYgZTkjA4UkwJUgGXng+6DX1zLfmoymdXo17xh5zmRJ6Q42BWCfc2oJfdAr+Yv+AP9Cb7OJ3H/2JG1HNGz/84klThPVCc=);strokeColor=none;strokeWidth=3;spacingTop=-2;spacingBottom=-2;spacingLeft=-2;spacingRight=-2;points=[];labelBackgroundColor=none;rounded=0;html=1;whiteSpace=wrap;fontSize=14;fontFamily=Arial;" parent="WIyWlLk6GJQsqaUBKTNV-1" vertex="1">
            <mxGeometry x="1448" y="1087" width="104" height="13" as="geometry" />
          </mxCell>
        </UserObject>
        <UserObject label="&lt;div style=&quot;font-size: 14px;&quot;&gt;&lt;font style=&quot;font-size: 14px; color: rgb(0, 0, 0); direction: ltr; letter-spacing: 0px; line-height: 120%; opacity: 1;&quot;&gt;&lt;i style=&quot;font-size: 14px;&quot;&gt;Лістоў&lt;br style=&quot;font-size: 14px;&quot;&gt;&lt;/i&gt;&lt;/font&gt;&lt;/div&gt;" tags="Фон" id="R9A7mDlzEDrGGW-_6-jg-47">
          <mxCell style="verticalAlign=middle;align=center;overflow=width;vsdxID=427;fillColor=none;gradientColor=none;shape=stencil(nZBLDoAgDERP0z3SIyjew0SURgSD+Lu9kMZoXLhwN9O+tukAlrNpJg1SzDH4QW/URgNYgZTkjA4UkwJUgGXng+6DX1zLfmoymdXo17xh5zmRJ6Q42BWCfc2oJfdAr+Yv+AP9Cb7OJ3H/2JG1HNGz/84klThPVCc=);strokeColor=none;strokeWidth=3;spacingTop=-2;spacingBottom=-2;spacingLeft=-2;spacingRight=-2;points=[];labelBackgroundColor=none;rounded=0;html=1;whiteSpace=wrap;fontSize=14;fontFamily=Arial;" parent="WIyWlLk6GJQsqaUBKTNV-1" vertex="1">
            <mxGeometry x="1552" y="1085" width="104" height="23" as="geometry" />
          </mxCell>
        </UserObject>
        <UserObject label="&lt;div style=&quot;font-size: 14px;&quot;&gt;&lt;font style=&quot;font-size: 14px; color: rgb(0, 0, 0); direction: ltr; letter-spacing: 0px; line-height: 120%; opacity: 1;&quot;&gt;&lt;i style=&quot;font-size: 14px;&quot;&gt;У&lt;br style=&quot;font-size: 14px;&quot;&gt;&lt;/i&gt;&lt;/font&gt;&lt;/div&gt;" tags="Фон" id="R9A7mDlzEDrGGW-_6-jg-48">
          <mxCell style="verticalAlign=middle;align=center;overflow=width;vsdxID=428;fillColor=none;gradientColor=none;shape=stencil(nZBLDoAgDERP0z3SIyjew0SURgSD+Lu9kMZoXLhwN9O+tukAlrNpJg1SzDH4QW/URgNYgZTkjA4UkwJUgGXng+6DX1zLfmoymdXo17xh5zmRJ6Q42BWCfc2oJfdAr+Yv+AP9Cb7OJ3H/2JG1HNGz/84klThPVCc=);strokeColor=none;points=[];labelBackgroundColor=none;rounded=0;html=1;whiteSpace=wrap;fontSize=14;fontFamily=Arial;" parent="WIyWlLk6GJQsqaUBKTNV-1" vertex="1">
            <mxGeometry x="1472" y="1036" width="32" height="40" as="geometry" />
          </mxCell>
        </UserObject>
        <UserObject label="" tags="Фон" id="R9A7mDlzEDrGGW-_6-jg-49">
          <mxCell style="vsdxID=429;edgeStyle=none;startArrow=none;endArrow=none;startSize=3;endSize=3;strokeWidth=4;strokeColor=#000000;spacingTop=-2;spacingBottom=-2;spacingLeft=-2;spacingRight=-2;verticalAlign=middle;html=1;labelBackgroundColor=#FFFFFF;rounded=0;fontSize=14;fontFamily=Arial;" parent="WIyWlLk6GJQsqaUBKTNV-1" edge="1">
            <mxGeometry relative="1" as="geometry">
              <Array as="points" />
              <mxPoint x="918" y="947" as="sourcePoint" />
              <mxPoint x="1660" y="947" as="targetPoint" />
            </mxGeometry>
          </mxCell>
        </UserObject>
        <UserObject label="&lt;div style=&quot;font-size: 14px;&quot;&gt;&lt;font style=&quot;font-size: 14px; color: rgb(0, 0, 0); direction: ltr; letter-spacing: 0px; line-height: 120%; opacity: 1;&quot;&gt;&lt;i style=&quot;font-size: 14px;&quot;&gt;1&lt;br style=&quot;font-size: 14px;&quot;&gt;&lt;/i&gt;&lt;/font&gt;&lt;/div&gt;" tags="Фон" id="R9A7mDlzEDrGGW-_6-jg-50">
          <mxCell style="verticalAlign=middle;align=center;overflow=width;vsdxID=431;fillColor=none;gradientColor=none;shape=stencil(nZBLDoAgDERP0z3SIyjew0SURgSD+Lu9kMZoXLhwN9O+tukAlrNpJg1SzDH4QW/URgNYgZTkjA4UkwJUgGXng+6DX1zLfmoymdXo17xh5zmRJ6Q42BWCfc2oJfdAr+Yv+AP9Cb7OJ3H/2JG1HNGz/84klThPVCc=);strokeColor=none;strokeWidth=3;spacingTop=-2;spacingBottom=-2;spacingLeft=-2;spacingRight=-2;points=[];labelBackgroundColor=none;rounded=0;html=1;whiteSpace=wrap;fontSize=14;fontFamily=Arial;" parent="WIyWlLk6GJQsqaUBKTNV-1" vertex="1">
            <mxGeometry x="1632" y="1087" width="14" height="21" as="geometry" />
          </mxCell>
        </UserObject>
        <UserObject label="&lt;div style=&quot;&quot;&gt;&lt;p style=&quot;text-align: center; margin: 0px; text-indent: 0px; vertical-align: middle; direction: ltr;&quot;&gt;&lt;font size=&quot;1&quot; style=&quot;color: rgb(0, 0, 0); direction: ltr; letter-spacing: 0px; line-height: 120%; opacity: 1;&quot;&gt;&lt;i style=&quot;font-size: 18px;&quot;&gt;БДУІР, гр. 250502&lt;/i&gt;&lt;/font&gt;&lt;font style=&quot;font-size: 14px; color: rgb(0, 0, 0); direction: ltr; letter-spacing: 0px; line-height: 120%; opacity: 1;&quot;&gt;&lt;i style=&quot;font-size: 14px;&quot;&gt;&lt;br style=&quot;font-size: 14px;&quot;&gt;&lt;/i&gt;&lt;/font&gt;&lt;/p&gt;&lt;/div&gt;" tags="Фон" id="R9A7mDlzEDrGGW-_6-jg-51">
          <mxCell style="verticalAlign=middle;align=center;overflow=width;vsdxID=433;fillColor=none;gradientColor=none;shape=stencil(nZBLDoAgDERP0z3SIyjew0SURgSD+Lu9kMZoXLhwN9O+tukAlrNpJg1SzDH4QW/URgNYgZTkjA4UkwJUgGXng+6DX1zLfmoymdXo17xh5zmRJ6Q42BWCfc2oJfdAr+Yv+AP9Cb7OJ3H/2JG1HNGz/84klThPVCc=);strokeColor=none;points=[];labelBackgroundColor=none;rounded=0;html=1;whiteSpace=wrap;fontSize=14;fontFamily=Arial;" parent="WIyWlLk6GJQsqaUBKTNV-1" vertex="1">
            <mxGeometry x="1461" y="1108" width="199" height="60" as="geometry" />
          </mxCell>
        </UserObject>
        <UserObject label="&lt;div style=&quot;font-size: 28px;&quot;&gt;&lt;p style=&quot;text-align: center; margin: 0px; text-indent: 0px; vertical-align: middle; direction: ltr;&quot;&gt;&lt;font style=&quot;font-size: 28px; color: rgb(0, 0, 0); direction: ltr; letter-spacing: 0px; line-height: 120%; opacity: 1;&quot;&gt;&lt;i style=&quot;&quot;&gt;ДУІР.&lt;/i&gt;&lt;/font&gt;&lt;font style=&quot;font-size: 28px; color: rgb(0, 0, 0); direction: ltr; letter-spacing: 0px; line-height: 120%; opacity: 1;&quot;&gt;&lt;i style=&quot;&quot;&gt;400201&lt;/i&gt;&lt;/font&gt;&lt;font style=&quot;font-size: 28px; color: rgb(0, 0, 0); direction: ltr; letter-spacing: 0px; line-height: 120%; opacity: 1;&quot;&gt;&lt;i style=&quot;&quot;&gt;.215&lt;/i&gt;&lt;/font&gt;&lt;font style=&quot;font-size: 28px; color: rgb(0, 0, 0); direction: ltr; letter-spacing: 0px; line-height: 120%; opacity: 1;&quot;&gt;&lt;i style=&quot;&quot;&gt;&amp;nbsp;ПД1&lt;br style=&quot;font-size: 14px;&quot;&gt;&lt;/i&gt;&lt;/font&gt;&lt;/p&gt;&lt;/div&gt;" tags="Фон" id="R9A7mDlzEDrGGW-_6-jg-52">
          <mxCell style="verticalAlign=middle;align=center;overflow=width;vsdxID=434;fillColor=none;gradientColor=none;shape=stencil(nZBLDoAgDERP0z3SIyjew0SURgSD+Lu9kMZoXLhwN9O+tukAlrNpJg1SzDH4QW/URgNYgZTkjA4UkwJUgGXng+6DX1zLfmoymdXo17xh5zmRJ6Q42BWCfc2oJfdAr+Yv+AP9Cb7OJ3H/2JG1HNGz/84klThPVCc=);strokeColor=none;points=[];labelBackgroundColor=none;rounded=0;html=1;whiteSpace=wrap;fontSize=14;fontFamily=Arial;" parent="WIyWlLk6GJQsqaUBKTNV-1" vertex="1">
            <mxGeometry x="1176" y="948" width="480" height="60" as="geometry" />
          </mxCell>
        </UserObject>
        <UserObject label="&lt;div style=&quot;font-size: 14px;&quot;&gt;&lt;p style=&quot;text-align: left; margin: 0px; text-indent: 0px; vertical-align: middle; direction: ltr; font-size: 14px;&quot;&gt;&lt;font style=&quot;font-size: 14px; color: rgb(0, 0, 0); direction: ltr; letter-spacing: 0px; line-height: 120%; opacity: 1;&quot;&gt;&lt;i style=&quot;font-size: 14px;&quot;&gt;Богдан&lt;/i&gt;&lt;/font&gt;&lt;/p&gt;&lt;/div&gt;" tags="Фон" id="R9A7mDlzEDrGGW-_6-jg-53">
          <mxCell style="verticalAlign=middle;align=left;overflow=width;vsdxID=435;fillColor=none;gradientColor=none;shape=stencil(nZBLDoAgDERP0z3SIyjew0SURgSD+Lu9kMZoXLhwN9O+tukAlrNpJg1SzDH4QW/URgNYgZTkjA4UkwJUgGXng+6DX1zLfmoymdXo17xh5zmRJ6Q42BWCfc2oJfdAr+Yv+AP9Cb7OJ3H/2JG1HNGz/84klThPVCc=);strokeColor=none;strokeWidth=3;spacingTop=-2;spacingBottom=-2;spacingLeft=-2;spacingRight=-2;points=[];labelBackgroundColor=none;rounded=0;html=1;whiteSpace=wrap;fontSize=14;fontFamily=Arial;" parent="WIyWlLk6GJQsqaUBKTNV-1" vertex="1">
            <mxGeometry x="995" y="1068" width="89" height="20" as="geometry" />
          </mxCell>
        </UserObject>
        <UserObject label="" tags="Фон" id="R9A7mDlzEDrGGW-_6-jg-54">
          <mxCell style="vsdxID=437;fillColor=none;gradientColor=none;shape=stencil(nZBLDoAgDERP0z3SIyjew0SURgSD+Lu9kMZoXLhwN9O+tukAlrNpJg1SzDH4QW/URgNYgZTkjA4UkwJUgGXng+6DX1zLfmoymdXo17xh5zmRJ6Q42BWCfc2oJfdAr+Yv+AP9Cb7OJ3H/2JG1HNGz/84klThPVCc=);strokeColor=none;points=[];labelBackgroundColor=none;rounded=0;html=1;whiteSpace=wrap;fontSize=14;fontFamily=Arial;" parent="WIyWlLk6GJQsqaUBKTNV-1" vertex="1">
            <mxGeometry x="1275" y="1110" width="214" height="28" as="geometry" />
          </mxCell>
        </UserObject>
        <UserObject label="" tags="Фон" id="R9A7mDlzEDrGGW-_6-jg-55">
          <mxCell style="vsdxID=438;edgeStyle=none;startArrow=none;endArrow=none;startSize=3;endSize=3;strokeWidth=4;strokeColor=#000000;spacingTop=-2;spacingBottom=-2;spacingLeft=-2;spacingRight=-2;verticalAlign=middle;html=1;labelBackgroundColor=#FFFFFF;rounded=0;fontSize=14;fontFamily=Arial;" parent="WIyWlLk6GJQsqaUBKTNV-1" edge="1">
            <mxGeometry relative="1" as="geometry">
              <Array as="points" />
              <mxPoint x="918" y="1168" as="sourcePoint" />
              <mxPoint x="1660" y="1168" as="targetPoint" />
            </mxGeometry>
          </mxCell>
        </UserObject>
        <UserObject label="&lt;div style=&quot;font-size: 14px;&quot;&gt;&lt;font style=&quot;font-size: 14px; color: rgb(0, 0, 0); direction: ltr; letter-spacing: 0px; line-height: 120%; opacity: 1;&quot;&gt;&lt;i style=&quot;font-size: 14px;&quot;&gt;Т.кантр.&lt;br style=&quot;font-size: 14px;&quot;&gt;&lt;/i&gt;&lt;/font&gt;&lt;/div&gt;" tags="Фон" id="R9A7mDlzEDrGGW-_6-jg-56">
          <mxCell style="verticalAlign=middle;align=center;overflow=width;vsdxID=418;fillColor=none;gradientColor=none;shape=stencil(nZBLDoAgDERP0z3SIyjew0SURgSD+Lu9kMZoXLhwN9O+tukAlrNpJg1SzDH4QW/URgNYgZTkjA4UkwJUgGXng+6DX1zLfmoymdXo17xh5zmRJ6Q42BWCfc2oJfdAr+Yv+AP9Cb7OJ3H/2JG1HNGz/84klThPVCc=);strokeColor=none;strokeWidth=3;spacingTop=-2;spacingBottom=-2;spacingLeft=-2;spacingRight=-2;points=[];labelBackgroundColor=none;rounded=0;html=1;whiteSpace=wrap;fontSize=14;fontFamily=Arial;" parent="WIyWlLk6GJQsqaUBKTNV-1" vertex="1">
            <mxGeometry x="904" y="1086" width="104" height="23" as="geometry" />
          </mxCell>
        </UserObject>
        <UserObject label="&lt;div style=&quot;font-size: 14px;&quot;&gt;&lt;font style=&quot;font-size: 14px; color: rgb(0, 0, 0); direction: ltr; letter-spacing: 0px; line-height: 120%; opacity: 1;&quot;&gt;&lt;i style=&quot;font-size: 14px;&quot;&gt;Н.кантр.&lt;br style=&quot;font-size: 14px;&quot;&gt;&lt;/i&gt;&lt;/font&gt;&lt;/div&gt;" tags="Фон" id="R9A7mDlzEDrGGW-_6-jg-57">
          <mxCell style="verticalAlign=middle;align=center;overflow=width;vsdxID=418;fillColor=none;gradientColor=none;shape=stencil(nZBLDoAgDERP0z3SIyjew0SURgSD+Lu9kMZoXLhwN9O+tukAlrNpJg1SzDH4QW/URgNYgZTkjA4UkwJUgGXng+6DX1zLfmoymdXo17xh5zmRJ6Q42BWCfc2oJfdAr+Yv+AP9Cb7OJ3H/2JG1HNGz/84klThPVCc=);strokeColor=none;strokeWidth=3;spacingTop=-2;spacingBottom=-2;spacingLeft=-2;spacingRight=-2;points=[];labelBackgroundColor=none;rounded=0;html=1;whiteSpace=wrap;fontSize=14;fontFamily=Arial;" parent="WIyWlLk6GJQsqaUBKTNV-1" vertex="1">
            <mxGeometry x="904" y="1126.5" width="104" height="23" as="geometry" />
          </mxCell>
        </UserObject>
        <UserObject label="&lt;div style=&quot;font-size: 14px;&quot;&gt;&lt;font style=&quot;font-size: 14px; color: rgb(0, 0, 0); direction: ltr; letter-spacing: 0px; line-height: 120%; opacity: 1;&quot;&gt;&lt;i style=&quot;font-size: 14px;&quot;&gt;Зацв.&lt;br style=&quot;font-size: 14px;&quot;&gt;&lt;/i&gt;&lt;/font&gt;&lt;/div&gt;" tags="Фон" id="R9A7mDlzEDrGGW-_6-jg-58">
          <mxCell style="verticalAlign=middle;align=center;overflow=width;vsdxID=418;fillColor=none;gradientColor=none;shape=stencil(nZBLDoAgDERP0z3SIyjew0SURgSD+Lu9kMZoXLhwN9O+tukAlrNpJg1SzDH4QW/URgNYgZTkjA4UkwJUgGXng+6DX1zLfmoymdXo17xh5zmRJ6Q42BWCfc2oJfdAr+Yv+AP9Cb7OJ3H/2JG1HNGz/84klThPVCc=);strokeColor=none;strokeWidth=3;spacingTop=-2;spacingBottom=-2;spacingLeft=-2;spacingRight=-2;points=[];labelBackgroundColor=none;rounded=0;html=1;whiteSpace=wrap;fontSize=14;fontFamily=Arial;" parent="WIyWlLk6GJQsqaUBKTNV-1" vertex="1">
            <mxGeometry x="904" y="1145" width="104" height="23" as="geometry" />
          </mxCell>
        </UserObject>
        <UserObject label="" tags="Фон" id="R9A7mDlzEDrGGW-_6-jg-59">
          <mxCell style="vsdxID=400;edgeStyle=none;startArrow=none;endArrow=none;startSize=3;endSize=3;strokeWidth=4;strokeColor=#000000;spacingTop=-2;spacingBottom=-2;spacingLeft=-2;spacingRight=-2;verticalAlign=middle;html=1;labelBackgroundColor=#FFFFFF;rounded=0;fontSize=14;fontFamily=Arial;" parent="WIyWlLk6GJQsqaUBKTNV-1" edge="1">
            <mxGeometry relative="1" as="geometry">
              <Array as="points" />
              <mxPoint x="916" y="945" as="sourcePoint" />
              <mxPoint x="916" y="1170" as="targetPoint" />
            </mxGeometry>
          </mxCell>
        </UserObject>
        <UserObject label="&lt;div style=&quot;font-size: 28px;&quot;&gt;&lt;p style=&quot;text-align: center; margin: 0px; text-indent: 0px; vertical-align: middle; direction: ltr;&quot;&gt;&lt;font style=&quot;font-size: 28px; color: rgb(0, 0, 0); direction: ltr; letter-spacing: 0px; line-height: 120%; opacity: 1;&quot;&gt;&lt;i style=&quot;&quot;&gt;ДУІР.&lt;/i&gt;&lt;/font&gt;&lt;font style=&quot;font-size: 28px; color: rgb(0, 0, 0); direction: ltr; letter-spacing: 0px; line-height: 120%; opacity: 1;&quot;&gt;&lt;i style=&quot;&quot;&gt;400201&lt;/i&gt;&lt;/font&gt;&lt;font style=&quot;font-size: 28px; color: rgb(0, 0, 0); direction: ltr; letter-spacing: 0px; line-height: 120%; opacity: 1;&quot;&gt;&lt;i style=&quot;&quot;&gt;.215&lt;/i&gt;&lt;/font&gt;&lt;font style=&quot;font-size: 28px; color: rgb(0, 0, 0); direction: ltr; letter-spacing: 0px; line-height: 120%; opacity: 1;&quot;&gt;&lt;i style=&quot;&quot;&gt;&amp;nbsp;ПД1&lt;/i&gt;&lt;/font&gt;&lt;font style=&quot;font-size: 14px; color: rgb(0, 0, 0); direction: ltr; letter-spacing: 0px; line-height: 120%; opacity: 1;&quot;&gt;&lt;i style=&quot;font-size: 14px;&quot;&gt;&lt;br style=&quot;font-size: 14px;&quot;&gt;&lt;/i&gt;&lt;/font&gt;&lt;/p&gt;&lt;/div&gt;" tags="Фон" id="R9A7mDlzEDrGGW-_6-jg-60">
          <mxCell style="verticalAlign=middle;align=center;overflow=width;vsdxID=439;rotation=180;fillColor=none;gradientColor=none;shape=stencil(nZBLDoAgDERP0z3SIyjew0SURgSD+Lu9kMZoXLhwN9O+tukAlrNpJg1SzDH4QW/URgNYgZTkjA4UkwJUgGXng+6DX1zLfmoymdXo17xh5zmRJ6Q42BWCfc2oJfdAr+Yv+AP9Cb7OJ3H/2JG1HNGz/84klThPVCc=);strokeColor=none;spacingTop=-3;spacingBottom=-3;spacingLeft=-3;spacingRight=-3;points=[];labelBackgroundColor=none;rounded=0;html=1;whiteSpace=wrap;fontSize=14;fontFamily=Arial;" parent="WIyWlLk6GJQsqaUBKTNV-1" vertex="1">
            <mxGeometry x="90" y="20" width="280" height="56" as="geometry" />
          </mxCell>
        </UserObject>
        <mxCell id="R9A7mDlzEDrGGW-_6-jg-61" value="Пачатак" style="strokeWidth=2;html=1;shape=mxgraph.flowchart.terminator;whiteSpace=wrap;fontSize=14;gradientColor=none;fontFamily=Arial;" parent="WIyWlLk6GJQsqaUBKTNV-1" vertex="1">
          <mxGeometry x="270" y="166.5" width="200" height="50" as="geometry" />
        </mxCell>
        <mxCell id="R9A7mDlzEDrGGW-_6-jg-62" value="Ачыстка табліцы" style="rounded=1;whiteSpace=wrap;html=1;absoluteArcSize=1;arcSize=0;strokeWidth=2;fontSize=14;align=center;fontFamily=Arial;" parent="WIyWlLk6GJQsqaUBKTNV-1" vertex="1">
          <mxGeometry x="270" y="395" width="200" height="100" as="geometry" />
        </mxCell>
        <mxCell id="R9A7mDlzEDrGGW-_6-jg-63" value="&lt;div style=&quot;font-size: 14px;&quot;&gt;Атрыманне спісу&lt;/div&gt;&lt;div style=&quot;font-size: 14px;&quot;&gt;заказаў з базы дадзеных&lt;/div&gt;" style="strokeWidth=2;html=1;shape=mxgraph.flowchart.database;whiteSpace=wrap;fontSize=14;fontFamily=Arial;" parent="WIyWlLk6GJQsqaUBKTNV-1" vertex="1">
          <mxGeometry x="270" y="255" width="200" height="100" as="geometry" />
        </mxCell>
        <mxCell id="R9A7mDlzEDrGGW-_6-jg-65" value="&lt;div style=&quot;font-size: 14px;&quot;&gt;Атрыманне індэксу для&lt;/div&gt;&lt;div style=&quot;font-size: 14px;&quot;&gt;ўстаўкі радка ў табліцу&lt;/div&gt;" style="rounded=1;whiteSpace=wrap;html=1;absoluteArcSize=1;arcSize=0;strokeWidth=2;fontSize=14;align=center;fontFamily=Arial;" parent="WIyWlLk6GJQsqaUBKTNV-1" vertex="1">
          <mxGeometry x="270" y="675" width="200" height="100" as="geometry" />
        </mxCell>
        <mxCell id="R9A7mDlzEDrGGW-_6-jg-66" value="&lt;div style=&quot;font-size: 14px;&quot;&gt;Устаўка новага радка&lt;/div&gt;&lt;div style=&quot;font-size: 14px;&quot;&gt;ў табліцу&lt;/div&gt;" style="rounded=1;whiteSpace=wrap;html=1;absoluteArcSize=1;arcSize=0;strokeWidth=2;fontSize=14;align=center;fontFamily=Arial;" parent="WIyWlLk6GJQsqaUBKTNV-1" vertex="1">
          <mxGeometry x="270" y="815" width="200" height="100" as="geometry" />
        </mxCell>
        <mxCell id="R9A7mDlzEDrGGW-_6-jg-67" value="&lt;div style=&quot;font-size: 14px;&quot;&gt;Устаўка даты замовы&lt;/div&gt;&lt;div style=&quot;font-size: 14px;&quot;&gt;ў ячэйку табліцы&lt;/div&gt;" style="rounded=1;whiteSpace=wrap;html=1;absoluteArcSize=1;arcSize=0;strokeWidth=2;fontSize=14;align=center;fontFamily=Arial;" parent="WIyWlLk6GJQsqaUBKTNV-1" vertex="1">
          <mxGeometry x="270" y="955" width="200" height="100" as="geometry" />
        </mxCell>
        <mxCell id="R9A7mDlzEDrGGW-_6-jg-68" value="&lt;div style=&quot;font-size: 14px;&quot;&gt;Устаўка эл. пошты&lt;/div&gt;&lt;div style=&quot;font-size: 14px;&quot;&gt;ў ячэйку памяці&lt;/div&gt;" style="rounded=1;whiteSpace=wrap;html=1;absoluteArcSize=1;arcSize=0;strokeWidth=2;fontSize=14;align=center;fontFamily=Arial;" parent="WIyWlLk6GJQsqaUBKTNV-1" vertex="1">
          <mxGeometry x="640" y="211.5" width="200" height="100" as="geometry" />
        </mxCell>
        <mxCell id="R9A7mDlzEDrGGW-_6-jg-69" value="&lt;div style=&quot;font-size: 14px;&quot;&gt;Фарміраванне радка з&lt;/div&gt;&lt;div style=&quot;font-size: 14px;&quot;&gt;ідэнтыфікатарамі&lt;/div&gt;&lt;div style=&quot;font-size: 14px;&quot;&gt;прадуктаў&lt;/div&gt;" style="rounded=1;whiteSpace=wrap;html=1;absoluteArcSize=1;arcSize=0;strokeWidth=2;fontSize=14;align=center;fontFamily=Arial;" parent="WIyWlLk6GJQsqaUBKTNV-1" vertex="1">
          <mxGeometry x="640" y="351.5" width="200" height="100" as="geometry" />
        </mxCell>
        <mxCell id="R9A7mDlzEDrGGW-_6-jg-71" value="&lt;div style=&quot;font-size: 14px;&quot;&gt;Даданне значэння id&lt;/div&gt;&lt;div style=&quot;font-size: 14px;&quot;&gt;да стокаваму патоку&lt;/div&gt;" style="rounded=1;whiteSpace=wrap;html=1;absoluteArcSize=1;arcSize=0;strokeWidth=2;fontSize=14;align=center;fontFamily=Arial;" parent="WIyWlLk6GJQsqaUBKTNV-1" vertex="1">
          <mxGeometry x="640" y="631.5" width="200" height="100" as="geometry" />
        </mxCell>
        <mxCell id="R9A7mDlzEDrGGW-_6-jg-74" value="Прадстаўленне даных з радка ў карыстальніцкі інтэрфейс" style="rounded=1;whiteSpace=wrap;html=1;absoluteArcSize=1;arcSize=0;strokeWidth=2;fontSize=14;align=center;fontFamily=Arial;" parent="WIyWlLk6GJQsqaUBKTNV-1" vertex="1">
          <mxGeometry x="1009" y="220" width="200" height="100" as="geometry" />
        </mxCell>
        <mxCell id="R9A7mDlzEDrGGW-_6-jg-77" value="Канец" style="strokeWidth=2;html=1;shape=mxgraph.flowchart.terminator;whiteSpace=wrap;fontSize=14;gradientColor=none;fontFamily=Arial;" parent="WIyWlLk6GJQsqaUBKTNV-1" vertex="1">
          <mxGeometry x="1009" y="500" width="200" height="50" as="geometry" />
        </mxCell>
        <mxCell id="R9A7mDlzEDrGGW-_6-jg-78" value="" style="endArrow=none;html=1;rounded=0;fontSize=14;startSize=8;endSize=8;curved=1;exitX=0.5;exitY=0;exitDx=0;exitDy=0;exitPerimeter=0;entryX=0.5;entryY=1;entryDx=0;entryDy=0;fontFamily=Arial;" parent="WIyWlLk6GJQsqaUBKTNV-1" target="R9A7mDlzEDrGGW-_6-jg-69" edge="1">
          <mxGeometry width="50" height="50" relative="1" as="geometry">
            <mxPoint x="740" y="491.5" as="sourcePoint" />
            <mxPoint x="740" y="461.5" as="targetPoint" />
          </mxGeometry>
        </mxCell>
        <mxCell id="R9A7mDlzEDrGGW-_6-jg-79" value="" style="endArrow=none;html=1;rounded=0;fontSize=14;startSize=8;endSize=8;curved=1;exitX=0.5;exitY=0;exitDx=0;exitDy=0;exitPerimeter=0;entryX=0.5;entryY=1;entryDx=0;entryDy=0;fontFamily=Arial;" parent="WIyWlLk6GJQsqaUBKTNV-1" edge="1">
          <mxGeometry width="50" height="50" relative="1" as="geometry">
            <mxPoint x="739.78" y="351.5" as="sourcePoint" />
            <mxPoint x="739.78" y="311.5" as="targetPoint" />
          </mxGeometry>
        </mxCell>
        <mxCell id="R9A7mDlzEDrGGW-_6-jg-80" value="" style="endArrow=none;html=1;rounded=0;fontSize=14;startSize=8;endSize=8;curved=1;exitX=0.5;exitY=0;exitDx=0;exitDy=0;exitPerimeter=0;entryX=0.5;entryY=1;entryDx=0;entryDy=0;fontFamily=Arial;" parent="WIyWlLk6GJQsqaUBKTNV-1" edge="1">
          <mxGeometry width="50" height="50" relative="1" as="geometry">
            <mxPoint x="369.78" y="1095" as="sourcePoint" />
            <mxPoint x="369.78" y="1055" as="targetPoint" />
          </mxGeometry>
        </mxCell>
        <mxCell id="R9A7mDlzEDrGGW-_6-jg-81" value="" style="endArrow=none;html=1;rounded=0;fontSize=14;startSize=8;endSize=8;curved=1;exitX=0.5;exitY=0;exitDx=0;exitDy=0;exitPerimeter=0;entryX=0.5;entryY=1;entryDx=0;entryDy=0;fontFamily=Arial;" parent="WIyWlLk6GJQsqaUBKTNV-1" edge="1">
          <mxGeometry width="50" height="50" relative="1" as="geometry">
            <mxPoint x="369.78" y="955" as="sourcePoint" />
            <mxPoint x="369.78" y="915" as="targetPoint" />
          </mxGeometry>
        </mxCell>
        <mxCell id="R9A7mDlzEDrGGW-_6-jg-82" value="" style="endArrow=none;html=1;rounded=0;fontSize=14;startSize=8;endSize=8;curved=1;exitX=0.5;exitY=0;exitDx=0;exitDy=0;exitPerimeter=0;entryX=0.5;entryY=1;entryDx=0;entryDy=0;fontFamily=Arial;" parent="WIyWlLk6GJQsqaUBKTNV-1" edge="1">
          <mxGeometry width="50" height="50" relative="1" as="geometry">
            <mxPoint x="369.78" y="815" as="sourcePoint" />
            <mxPoint x="369.78" y="775" as="targetPoint" />
          </mxGeometry>
        </mxCell>
        <mxCell id="R9A7mDlzEDrGGW-_6-jg-83" value="" style="endArrow=none;html=1;rounded=0;fontSize=14;startSize=8;endSize=8;curved=1;exitX=0.5;exitY=0;exitDx=0;exitDy=0;exitPerimeter=0;entryX=0.5;entryY=1;entryDx=0;entryDy=0;fontFamily=Arial;" parent="WIyWlLk6GJQsqaUBKTNV-1" edge="1">
          <mxGeometry width="50" height="50" relative="1" as="geometry">
            <mxPoint x="369.78" y="675" as="sourcePoint" />
            <mxPoint x="369.78" y="635" as="targetPoint" />
          </mxGeometry>
        </mxCell>
        <mxCell id="R9A7mDlzEDrGGW-_6-jg-84" value="" style="endArrow=none;html=1;rounded=0;fontSize=14;startSize=8;endSize=8;curved=1;exitX=0.5;exitY=0;exitDx=0;exitDy=0;exitPerimeter=0;entryX=0.5;entryY=1;entryDx=0;entryDy=0;fontFamily=Arial;" parent="WIyWlLk6GJQsqaUBKTNV-1" edge="1">
          <mxGeometry width="50" height="50" relative="1" as="geometry">
            <mxPoint x="369.78" y="535" as="sourcePoint" />
            <mxPoint x="369.78" y="495" as="targetPoint" />
          </mxGeometry>
        </mxCell>
        <mxCell id="R9A7mDlzEDrGGW-_6-jg-85" value="" style="endArrow=none;html=1;rounded=0;fontSize=14;startSize=8;endSize=8;curved=1;exitX=0.5;exitY=0;exitDx=0;exitDy=0;exitPerimeter=0;entryX=0.5;entryY=1;entryDx=0;entryDy=0;fontFamily=Arial;" parent="WIyWlLk6GJQsqaUBKTNV-1" edge="1">
          <mxGeometry width="50" height="50" relative="1" as="geometry">
            <mxPoint x="369.78" y="395" as="sourcePoint" />
            <mxPoint x="369.78" y="355" as="targetPoint" />
          </mxGeometry>
        </mxCell>
        <mxCell id="R9A7mDlzEDrGGW-_6-jg-86" value="" style="endArrow=none;html=1;rounded=0;fontSize=14;startSize=8;endSize=8;curved=1;exitX=0.5;exitY=0;exitDx=0;exitDy=0;exitPerimeter=0;entryX=0.5;entryY=1;entryDx=0;entryDy=0;fontFamily=Arial;" parent="WIyWlLk6GJQsqaUBKTNV-1" edge="1">
          <mxGeometry width="50" height="50" relative="1" as="geometry">
            <mxPoint x="369.78" y="255" as="sourcePoint" />
            <mxPoint x="369.78" y="215" as="targetPoint" />
          </mxGeometry>
        </mxCell>
        <mxCell id="R9A7mDlzEDrGGW-_6-jg-87" value="" style="endArrow=none;html=1;rounded=0;fontSize=14;startSize=8;endSize=8;curved=1;exitX=0.5;exitY=0;exitDx=0;exitDy=0;exitPerimeter=0;entryX=0.5;entryY=1;entryDx=0;entryDy=0;fontFamily=Arial;" parent="WIyWlLk6GJQsqaUBKTNV-1" edge="1">
          <mxGeometry width="50" height="50" relative="1" as="geometry">
            <mxPoint x="739.62" y="631.5" as="sourcePoint" />
            <mxPoint x="739.62" y="591.5" as="targetPoint" />
          </mxGeometry>
        </mxCell>
        <mxCell id="R9A7mDlzEDrGGW-_6-jg-88" value="" style="endArrow=none;html=1;rounded=0;fontSize=14;startSize=8;endSize=8;curved=1;exitX=0.5;exitY=0;exitDx=0;exitDy=0;exitPerimeter=0;entryX=0.5;entryY=1;entryDx=0;entryDy=0;fontFamily=Arial;" parent="WIyWlLk6GJQsqaUBKTNV-1" edge="1">
          <mxGeometry width="50" height="50" relative="1" as="geometry">
            <mxPoint x="739.62" y="771.5" as="sourcePoint" />
            <mxPoint x="739.62" y="731.5" as="targetPoint" />
          </mxGeometry>
        </mxCell>
        <mxCell id="R9A7mDlzEDrGGW-_6-jg-89" value="" style="endArrow=none;html=1;rounded=0;fontSize=14;startSize=8;endSize=8;curved=1;exitX=0.5;exitY=0;exitDx=0;exitDy=0;exitPerimeter=0;entryX=0.5;entryY=1;entryDx=0;entryDy=0;fontFamily=Arial;" parent="WIyWlLk6GJQsqaUBKTNV-1" edge="1">
          <mxGeometry width="50" height="50" relative="1" as="geometry">
            <mxPoint x="739.62" y="911.5" as="sourcePoint" />
            <mxPoint x="739.62" y="871.5" as="targetPoint" />
          </mxGeometry>
        </mxCell>
        <mxCell id="R9A7mDlzEDrGGW-_6-jg-90" value="" style="endArrow=none;html=1;rounded=0;fontSize=14;startSize=8;endSize=8;curved=1;exitX=0.5;exitY=0;exitDx=0;exitDy=0;exitPerimeter=0;entryX=0.5;entryY=1;entryDx=0;entryDy=0;fontFamily=Arial;" parent="WIyWlLk6GJQsqaUBKTNV-1" edge="1">
          <mxGeometry width="50" height="50" relative="1" as="geometry">
            <mxPoint x="1108.62" y="360" as="sourcePoint" />
            <mxPoint x="1108.62" y="320" as="targetPoint" />
          </mxGeometry>
        </mxCell>
        <mxCell id="R9A7mDlzEDrGGW-_6-jg-91" value="" style="endArrow=none;html=1;rounded=0;fontSize=14;startSize=8;endSize=8;curved=1;exitX=0.5;exitY=0;exitDx=0;exitDy=0;exitPerimeter=0;entryX=0.5;entryY=1;entryDx=0;entryDy=0;fontFamily=Arial;" parent="WIyWlLk6GJQsqaUBKTNV-1" edge="1">
          <mxGeometry width="50" height="50" relative="1" as="geometry">
            <mxPoint x="1108.62" y="500" as="sourcePoint" />
            <mxPoint x="1108.62" y="460" as="targetPoint" />
          </mxGeometry>
        </mxCell>
        <mxCell id="R9A7mDlzEDrGGW-_6-jg-92" value="А" style="strokeWidth=2;html=1;shape=mxgraph.flowchart.start_1;whiteSpace=wrap;fontSize=14;fontFamily=Arial;" parent="WIyWlLk6GJQsqaUBKTNV-1" vertex="1">
          <mxGeometry x="345" y="1095" width="50" height="50" as="geometry" />
        </mxCell>
        <mxCell id="R9A7mDlzEDrGGW-_6-jg-93" value="A" style="strokeWidth=2;html=1;shape=mxgraph.flowchart.start_1;whiteSpace=wrap;fontSize=14;fontFamily=Arial;" parent="WIyWlLk6GJQsqaUBKTNV-1" vertex="1">
          <mxGeometry x="715" y="120.5" width="50" height="50" as="geometry" />
        </mxCell>
        <mxCell id="R9A7mDlzEDrGGW-_6-jg-94" value="" style="endArrow=none;html=1;rounded=0;exitX=0.5;exitY=1;exitDx=0;exitDy=0;exitPerimeter=0;entryX=0.5;entryY=0;entryDx=0;entryDy=0;entryPerimeter=0;fontSize=14;fontFamily=Arial;" parent="WIyWlLk6GJQsqaUBKTNV-1" edge="1">
          <mxGeometry width="50" height="50" relative="1" as="geometry">
            <mxPoint x="739.77" y="170.5" as="sourcePoint" />
            <mxPoint x="739.77" y="210.5" as="targetPoint" />
          </mxGeometry>
        </mxCell>
        <mxCell id="R9A7mDlzEDrGGW-_6-jg-95" value="Б" style="strokeWidth=2;html=1;shape=mxgraph.flowchart.start_1;whiteSpace=wrap;fontSize=14;fontFamily=Arial;" parent="WIyWlLk6GJQsqaUBKTNV-1" vertex="1">
          <mxGeometry x="715" y="913.5" width="50" height="50" as="geometry" />
        </mxCell>
        <mxCell id="R9A7mDlzEDrGGW-_6-jg-96" value="Б" style="strokeWidth=2;html=1;shape=mxgraph.flowchart.start_1;whiteSpace=wrap;fontSize=14;fontFamily=Arial;" parent="WIyWlLk6GJQsqaUBKTNV-1" vertex="1">
          <mxGeometry x="1084" y="130" width="50" height="50" as="geometry" />
        </mxCell>
        <mxCell id="R9A7mDlzEDrGGW-_6-jg-97" value="" style="endArrow=none;html=1;rounded=0;exitX=0.5;exitY=1;exitDx=0;exitDy=0;exitPerimeter=0;entryX=0.5;entryY=0;entryDx=0;entryDy=0;entryPerimeter=0;fontSize=14;fontFamily=Arial;" parent="WIyWlLk6GJQsqaUBKTNV-1" edge="1">
          <mxGeometry width="50" height="50" relative="1" as="geometry">
            <mxPoint x="1108.77" y="180" as="sourcePoint" />
            <mxPoint x="1108.77" y="220" as="targetPoint" />
          </mxGeometry>
        </mxCell>
        <mxCell id="roonAbpmuvZ-azJY3-0z-0" value="&lt;div style=&quot;border-color: var(--border-color);&quot;&gt;Цыкл для апрацоўкі&lt;/div&gt;&lt;div style=&quot;border-color: var(--border-color);&quot;&gt;кожнага замовы&lt;/div&gt;" style="shape=loopLimit;whiteSpace=wrap;html=1;strokeWidth=2;fontSize=14;fontFamily=Arial;" vertex="1" parent="WIyWlLk6GJQsqaUBKTNV-1">
          <mxGeometry x="270" y="534.5" width="200" height="100" as="geometry" />
        </mxCell>
        <mxCell id="roonAbpmuvZ-azJY3-0z-1" value="&lt;div style=&quot;border-color: var(--border-color);&quot;&gt;Цыкл для&lt;/div&gt;&lt;div style=&quot;border-color: var(--border-color);&quot;&gt;&amp;nbsp;апрацоўкі кожнага&lt;/div&gt;&lt;div style=&quot;border-color: var(--border-color);&quot;&gt;ідэнтыфікатара&lt;/div&gt;&lt;div style=&quot;border-color: var(--border-color);&quot;&gt;прадукту&lt;/div&gt;" style="shape=loopLimit;whiteSpace=wrap;html=1;strokeWidth=2;fontSize=14;fontFamily=Arial;direction=west;" vertex="1" parent="WIyWlLk6GJQsqaUBKTNV-1">
          <mxGeometry x="640" y="774" width="200" height="100" as="geometry" />
        </mxCell>
        <mxCell id="roonAbpmuvZ-azJY3-0z-2" value="&lt;div style=&quot;border-color: var(--border-color);&quot;&gt;Цыкл для апрацоўкі&lt;/div&gt;&lt;div style=&quot;border-color: var(--border-color);&quot;&gt;кожнай замовы&lt;/div&gt;" style="shape=loopLimit;whiteSpace=wrap;html=1;strokeWidth=2;fontSize=14;fontFamily=Arial;direction=west;" vertex="1" parent="WIyWlLk6GJQsqaUBKTNV-1">
          <mxGeometry x="1009" y="359" width="200" height="100" as="geometry" />
        </mxCell>
        <mxCell id="roonAbpmuvZ-azJY3-0z-3" value="&lt;div style=&quot;border-color: var(--border-color);&quot;&gt;Цыкл для апрацоўкі кожнага ідэнтыфікатара&lt;/div&gt;&lt;div style=&quot;border-color: var(--border-color);&quot;&gt;прадукту&lt;/div&gt;" style="shape=loopLimit;whiteSpace=wrap;html=1;strokeWidth=2;fontSize=14;fontFamily=Arial;" vertex="1" parent="WIyWlLk6GJQsqaUBKTNV-1">
          <mxGeometry x="640" y="493" width="200" height="100" as="geometry" />
        </mxCell>
      </root>
    </mxGraphModel>
  </diagram>
</mxfile>
